<svg width="27" height="27" viewBox="0 0 27 27" fill="none" xmlns="http://www.w3.org/2000/svg">
<path d="M18.9191 9.63273C20.5133 9.92018 21.9812 10.6892 23.1251 11.8361C24.6177 13.3348 25.4557 15.3637 25.4557 17.4788C25.4557 19.5939 24.6177 21.6229 23.1251 23.1215C21.6265 24.6141 19.5975 25.4521 17.4824 25.4521C15.3673 25.4521 13.3383 24.6141 11.8397 23.1215C10.3471 21.6229 9.50914 19.5939 9.50914 17.4788C9.50914 15.3637 10.3471 13.3348 11.8397 11.8361C12.1917 11.4843 12.471 11.0666 12.6615 10.6068C12.852 10.147 12.9501 9.6542 12.9501 9.1565C12.9501 8.65881 12.852 8.16599 12.6615 7.7062C12.471 7.24642 12.1917 6.82868 11.8397 6.47686C11.129 5.76688 10.1655 5.36808 9.16095 5.36808C8.15638 5.36808 7.1929 5.76688 6.4822 6.47686C6.13017 6.82868 5.85091 7.24642 5.66038 7.7062C5.46985 8.16599 5.37179 8.65881 5.37179 9.1565C5.37179 9.6542 5.46985 10.147 5.66038 10.6068C5.85091 11.0666 6.13017 11.4843 6.4822 11.8361C7.1133 12.4663 7.94774 12.8517 8.83666 12.9236C9.05748 12.4986 9.31055 12.091 9.59364 11.7046C9.18611 11.7736 8.76801 11.744 8.37421 11.6185C7.98041 11.493 7.62232 11.2752 7.3298 10.9832C6.844 10.4962 6.57119 9.83639 6.57119 9.14851C6.57119 8.46062 6.844 7.80082 7.3298 7.31381C7.81667 6.82909 8.47571 6.55696 9.16272 6.55696C9.84974 6.55696 10.5088 6.82909 10.9956 7.31381C11.4819 7.80059 11.755 8.46048 11.755 9.14851C11.755 9.83653 11.4819 10.4964 10.9956 10.9832C9.27945 12.7055 8.31581 15.0377 8.31581 17.4691C8.31581 19.9004 9.27945 22.2327 10.9956 23.9549C12.7183 25.6738 15.0524 26.6392 17.486 26.6392C19.9195 26.6392 22.2536 25.6738 23.9763 23.9549C25.6925 22.2327 26.6561 19.9004 26.6561 17.4691C26.6561 15.0377 25.6925 12.7055 23.9763 10.9832C22.603 9.6072 20.8263 8.70573 18.9049 8.41018C18.9365 8.81454 18.9425 9.22051 18.9226 9.62562L18.9191 9.63273ZM4.79232 4.77633C5.95266 3.6182 7.5251 2.96775 9.1645 2.96775C10.8039 2.96775 12.3763 3.6182 13.5367 4.77633C14.6949 5.93697 15.3454 7.5097 15.3454 9.14939C15.3454 10.7891 14.6949 12.3618 13.5367 13.5225C12.4905 14.5705 11.903 15.9909 11.903 17.4717C11.903 18.9526 12.4905 20.3729 13.5367 21.421C14.5855 22.4664 16.006 23.0534 17.4868 23.0534C18.9677 23.0534 20.3882 22.4664 21.437 21.421C22.4818 20.3722 23.0685 18.9521 23.0685 17.4717C23.0685 15.9913 22.4818 14.5712 21.437 13.5225C20.6415 12.7255 19.6228 12.1889 18.5157 11.9836C18.4 12.3736 18.2581 12.7553 18.091 13.1262C19.0371 13.2576 19.9143 13.6943 20.5894 14.3701C21.4141 15.1948 21.8774 16.3134 21.8774 17.4797C21.8774 18.6461 21.4141 19.7646 20.5894 20.5894C19.7657 21.4106 18.65 21.8717 17.4868 21.8717C16.3237 21.8717 15.208 21.4106 14.3843 20.5894C13.9755 20.1812 13.6512 19.6965 13.43 19.1629C13.2087 18.6293 13.0948 18.0574 13.0948 17.4797C13.0948 16.9021 13.2087 16.3301 13.43 15.7965C13.6512 15.2629 13.9755 14.7782 14.3843 14.3701C15.766 12.985 16.5419 11.1084 16.5419 9.15206C16.5419 7.19567 15.766 5.31914 14.3843 3.93405C12.9994 2.55142 11.1224 1.77485 9.16539 1.77485C7.20842 1.77485 5.33143 2.55142 3.94649 3.93405C2.5631 5.31822 1.78598 7.1951 1.78598 9.15206C1.78598 11.109 2.5631 12.9859 3.94649 14.3701C4.98645 15.4185 6.31969 16.1273 7.77049 16.4029C7.81259 16.0058 7.87965 15.6117 7.97128 15.223C6.76358 14.9905 5.65358 14.4005 4.78521 13.5296C3.62698 12.3689 2.97649 10.7962 2.97649 9.1565C2.97649 7.51681 3.62698 5.94408 4.78521 4.78343L4.79232 4.77633ZM7.72606 17.0106C6.13091 16.7229 4.66198 15.954 3.51647 14.8072C2.02391 13.3086 1.18591 11.2796 1.18591 9.1645C1.18591 7.04939 2.02391 5.02044 3.51647 3.5218C5.01512 2.02924 7.04407 1.19124 9.15917 1.19124C11.2743 1.19124 13.3032 2.02924 14.8019 3.5218C16.297 5.01907 17.1368 7.04853 17.1368 9.1645C17.1368 11.2805 16.297 13.3099 14.8019 14.8072C14.0927 15.5187 13.6944 16.4823 13.6944 17.4868C13.6944 18.4914 14.0927 19.455 14.8019 20.1665C15.5132 20.8767 16.4772 21.2756 17.4824 21.2756C18.4876 21.2756 19.4516 20.8767 20.1629 20.1665C20.873 19.4555 21.2719 18.4917 21.2719 17.4868C21.2719 16.482 20.873 15.5182 20.1629 14.8072C19.5337 14.1756 18.7005 13.7883 17.812 13.7144C17.5895 14.1379 17.3365 14.5447 17.055 14.9316C17.4623 14.8609 17.8805 14.8888 18.2747 15.0131C18.669 15.1374 19.0276 15.3544 19.3207 15.6459C19.5622 15.887 19.7539 16.1734 19.8846 16.4887C20.0154 16.804 20.0827 17.142 20.0827 17.4833C20.0827 17.8246 20.0154 18.1626 19.8846 18.4778C19.7539 18.7931 19.5622 19.0795 19.3207 19.3206C18.8339 19.8063 18.1744 20.0791 17.4868 20.0791C16.7993 20.0791 16.1397 19.8063 15.653 19.3206C15.1673 18.8339 14.8946 18.1744 14.8946 17.4868C14.8946 16.7992 15.1673 16.1397 15.653 15.653C17.3692 13.9308 18.3329 11.5985 18.3329 9.16716C18.3329 6.73581 17.3692 4.40356 15.653 2.6813C13.9312 0.96424 11.5988 0 9.16717 0C6.73552 0 4.4031 0.96424 2.6813 2.6813C0.964237 4.4031 0 6.73552 0 9.16716C0 11.5988 0.964237 13.9312 2.6813 15.653C4.05435 17.0283 5.83033 17.9297 7.75094 18.226C7.72073 17.821 7.71539 17.4145 7.73495 17.0088L7.72606 17.0106ZM8.56478 13.5082C7.61851 13.3759 6.74097 12.9393 6.06461 12.2644C5.24417 11.4399 4.78358 10.3241 4.78358 9.16094C4.78358 7.9978 5.24417 6.88198 6.06461 6.0575C6.88871 5.23565 8.00508 4.77412 9.16895 4.77412C10.3328 4.77412 11.4492 5.23565 12.2733 6.0575C13.0942 6.88176 13.555 7.99766 13.555 9.16094C13.555 10.3242 13.0942 11.4401 12.2733 12.2644C10.8916 13.6495 10.1157 15.526 10.1157 17.4824C10.1157 19.4388 10.8916 21.3153 12.2733 22.7004C13.6581 24.0782 15.5323 24.8514 17.4858 24.8507C19.4393 24.8501 21.313 24.0756 22.6969 22.6968C24.0785 21.3118 24.8544 19.4352 24.8544 17.4788C24.8544 15.5224 24.0785 13.6459 22.6969 12.2608C21.6526 11.215 20.3176 10.5079 18.8658 10.2316C18.8215 10.6279 18.7538 11.0213 18.6632 11.4097C19.8727 11.6417 20.985 12.2309 21.8564 13.1013C23.0145 14.2617 23.6649 15.8341 23.6649 17.4735C23.6649 19.1129 23.0145 20.6854 21.8564 21.8457C20.6959 23.0044 19.1231 23.6551 17.4833 23.6551C15.8434 23.6551 14.2706 23.0044 13.1102 21.8457C11.9521 20.6854 11.3016 19.1129 11.3016 17.4735C11.3016 15.8341 11.9521 14.2617 13.1102 13.1013C14.1555 12.0528 14.7425 10.6326 14.7425 9.15206C14.7425 7.6715 14.1555 6.25133 13.1102 5.20279C12.0618 4.15654 10.6412 3.56894 9.16006 3.56894C7.67893 3.56894 6.25829 4.15654 5.2099 5.20279C4.16462 6.25133 3.57767 7.6715 3.57767 9.15206C3.57767 10.6326 4.16462 12.0528 5.2099 13.1013C6.00342 13.8987 7.0202 14.4365 8.12588 14.6437C8.24372 14.2542 8.38617 13.8726 8.55234 13.5011" fill="#FF662B"/>
</svg>
